<?xml version="1.0" encoding="UTF-8" ?>
<!DOCTYPE svg PUBLIC "-//W3C//DTD SVG 1.1//EN" "http://www.w3.org/Graphics/SVG/1.1/DTD/svg11.dtd">
<svg width="963pt" height="1038pt" viewBox="0 0 963 1038" version="1.1" xmlns="http://www.w3.org/2000/svg">
<path fill="#fdfdfd" d=" M 0.00 0.00 L 10.50 0.00 C 8.95 0.53 7.41 1.09 5.90 1.74 C 2.65 3.29 0.12 6.42 0.00 10.12 L 0.00 0.00 Z" />
<path fill="#a9a9a9" d=" M 10.50 0.00 L 15.47 0.00 C 16.89 0.56 18.34 1.04 19.72 1.70 C 15.12 1.41 10.46 0.58 5.90 1.74 C 7.41 1.09 8.95 0.53 10.50 0.00 Z" />
<path fill="#fdfdfd" d=" M 15.47 0.00 L 963.00 0.00 L 963.00 1038.00 L 767.74 1038.00 C 778.21 1037.32 789.41 1034.77 797.06 1027.09 C 802.68 1021.62 805.11 1013.68 805.16 1006.00 C 805.23 992.47 805.13 978.94 805.20 965.41 C 793.56 965.20 781.92 965.36 770.28 965.32 C 770.27 976.54 770.27 987.77 770.29 999.00 C 770.22 1002.54 770.09 1006.31 768.31 1009.48 C 766.56 1012.58 761.41 1012.52 759.70 1009.41 C 757.95 1006.27 757.90 1002.51 757.77 999.01 C 757.79 965.65 757.79 932.29 757.77 898.93 C 757.81 894.00 757.41 888.84 759.35 884.19 C 760.69 880.59 766.46 880.21 768.34 883.51 C 770.10 886.66 770.20 890.42 770.29 893.95 C 770.27 902.81 770.26 911.67 770.28 920.54 C 781.92 920.51 793.55 920.60 805.19 920.49 C 805.08 908.64 805.36 896.79 805.06 884.95 C 804.78 876.02 800.34 867.26 792.82 862.32 C 782.10 855.12 768.59 854.45 756.11 855.38 C 746.29 856.38 736.01 859.77 729.46 867.55 C 724.63 873.15 722.88 880.70 722.86 887.95 C 722.82 926.30 722.87 964.66 722.83 1003.01 C 722.67 1011.15 724.28 1019.86 730.00 1026.03 C 737.39 1034.30 748.83 1037.12 759.49 1038.00 L 616.74 1038.00 C 626.80 1037.40 637.44 1035.09 645.15 1028.17 C 651.17 1022.95 654.25 1014.94 654.32 1007.07 C 654.40 993.17 654.29 979.26 654.36 965.36 C 642.74 965.26 631.12 965.33 619.49 965.32 C 619.48 976.87 619.49 988.43 619.50 999.98 C 619.41 1003.42 619.26 1007.22 617.06 1010.07 C 615.17 1012.48 610.97 1012.28 609.23 1009.78 C 607.24 1006.96 607.29 1003.31 607.18 1000.01 C 607.18 966.32 607.20 932.64 607.18 898.95 C 607.21 895.01 606.99 891.05 607.63 887.15 C 608.03 885.09 608.83 882.80 610.84 881.79 C 613.05 880.75 616.14 881.20 617.49 883.41 C 619.42 886.54 619.46 890.39 619.51 893.96 C 619.48 902.82 619.48 911.68 619.50 920.54 C 631.11 920.54 642.72 920.55 654.34 920.53 C 654.34 909.35 654.34 898.18 654.35 887.01 C 654.40 879.75 652.25 872.25 647.23 866.86 C 639.65 858.46 627.92 855.60 617.03 855.03 C 606.24 854.57 594.83 855.91 585.47 861.69 C 579.51 865.28 575.06 871.24 573.34 877.99 C 571.91 882.87 572.24 888.00 572.22 893.03 C 572.23 927.68 572.22 962.33 572.22 996.99 C 572.11 1005.60 571.60 1014.92 576.56 1022.46 C 583.25 1033.26 596.58 1037.02 608.52 1038.00 L 464.83 1038.00 C 474.80 1037.67 485.23 1035.51 493.22 1029.19 C 499.99 1023.93 503.58 1015.31 503.52 1006.83 C 503.54 966.54 503.56 926.26 503.51 885.97 C 503.61 876.81 499.22 867.57 491.50 862.47 C 480.86 855.19 467.37 854.45 454.91 855.35 C 446.67 856.13 438.30 858.58 431.75 863.80 C 427.01 867.52 423.75 872.94 422.37 878.78 C 421.11 883.74 421.45 888.90 421.42 893.97 C 421.43 931.33 421.41 968.69 421.43 1006.04 C 421.37 1014.08 424.20 1022.37 430.26 1027.85 C 437.83 1034.83 448.36 1037.26 458.36 1038.00 L 315.69 1038.00 C 325.96 1037.32 336.79 1034.75 344.46 1027.46 C 349.95 1022.18 352.74 1014.53 352.72 1006.99 C 352.79 993.10 352.73 979.21 352.74 965.32 C 341.11 965.32 329.48 965.27 317.86 965.35 C 317.78 977.57 317.89 989.79 317.81 1002.01 C 317.74 1005.34 317.16 1009.23 314.19 1011.25 C 312.37 1011.98 309.93 1012.06 308.46 1010.56 C 305.86 1008.16 305.76 1004.28 305.63 1001.00 C 305.60 965.00 305.63 929.01 305.61 893.01 C 305.67 889.76 305.71 886.28 307.48 883.44 C 309.25 880.64 313.97 880.45 315.82 883.24 C 317.87 886.06 317.78 889.70 317.84 893.04 C 317.85 902.20 317.79 911.36 317.87 920.52 C 329.49 920.56 341.11 920.53 352.74 920.54 C 352.71 908.72 352.83 896.90 352.69 885.08 C 352.59 876.60 348.60 868.15 341.68 863.14 C 332.90 856.68 321.63 854.83 310.95 855.09 C 299.79 855.00 287.76 857.43 279.35 865.27 C 273.32 870.74 270.60 879.03 270.65 887.03 C 270.64 926.68 270.63 966.33 270.65 1005.97 C 270.65 1013.70 273.13 1021.71 278.82 1027.17 C 286.30 1034.67 297.19 1037.18 307.41 1038.00 L 0.00 1038.00 L 0.00 11.61 C 0.02 17.57 5.64 20.86 10.89 21.66 C 12.78 17.91 14.66 14.15 16.65 10.45 C 24.64 11.03 32.47 14.68 36.94 21.53 C 37.98 21.50 40.05 21.45 41.09 21.43 C 35.99 13.04 29.05 5.36 19.72 1.70 C 18.34 1.04 16.89 0.56 15.47 0.00 Z" />
<path fill="#272727" d=" M 0.00 10.12 C 0.12 6.42 2.65 3.29 5.90 1.74 C 10.46 0.58 15.12 1.41 19.72 1.70 C 29.05 5.36 35.99 13.04 41.09 21.43 C 40.05 21.45 37.98 21.50 36.94 21.53 C 32.47 14.68 24.64 11.03 16.65 10.45 C 14.66 14.15 12.78 17.91 10.89 21.66 C 5.64 20.86 0.02 17.57 0.00 11.61 L 0.00 10.12 Z" />
<path fill="#272727" d=" M 337.52 20.75 C 343.15 17.63 349.51 15.89 355.93 15.55 C 366.87 15.09 377.93 16.05 388.45 19.17 C 389.29 25.36 389.56 31.60 390.38 37.79 C 388.80 37.80 387.21 37.81 385.63 37.81 C 385.11 32.17 382.31 26.61 377.46 23.51 C 370.50 19.01 361.60 18.36 353.64 20.01 C 341.94 22.95 334.33 33.94 331.02 44.95 C 327.55 57.32 327.16 70.70 330.51 83.14 C 333.02 92.38 339.29 100.78 348.08 104.85 C 357.74 109.39 368.86 109.27 379.16 107.34 C 379.10 99.87 379.27 92.40 379.09 84.93 C 378.73 81.94 379.00 78.45 376.80 76.08 C 374.40 73.78 370.84 74.28 367.80 74.05 C 367.78 72.81 367.74 71.56 367.72 70.32 C 379.02 70.22 390.31 70.27 401.61 70.28 C 401.54 71.54 401.48 72.81 401.42 74.07 C 398.34 74.30 394.63 73.78 392.39 76.37 C 390.57 78.46 390.61 81.47 390.41 84.09 C 390.30 92.55 390.38 101.01 390.38 109.47 C 375.19 114.74 358.10 117.08 342.62 111.68 C 331.17 107.73 322.70 97.81 318.58 86.65 C 314.24 74.95 313.84 61.99 316.50 49.86 C 319.25 37.89 326.66 26.76 337.52 20.75 Z" />
<path fill="#272727" d=" M 102.26 16.30 C 103.46 16.29 104.66 16.28 105.86 16.27 C 106.68 26.05 105.40 35.86 106.11 45.65 C 104.72 45.68 103.34 45.70 101.95 45.71 C 101.62 43.37 102.24 40.56 100.61 38.58 C 98.02 37.59 95.29 38.62 92.86 39.57 C 86.68 42.02 80.58 44.67 74.45 47.25 C 74.44 61.68 74.47 76.12 74.44 90.55 C 81.98 93.46 89.23 97.24 97.05 99.34 C 101.03 99.63 101.59 94.70 101.99 91.78 C 102.93 91.74 104.81 91.66 105.75 91.61 C 106.45 99.81 106.21 108.07 105.80 116.27 C 104.55 116.26 103.30 116.25 102.05 116.24 C 102.62 109.83 96.56 106.42 91.49 104.36 C 62.07 92.20 32.61 80.15 3.17 68.04 C 3.15 66.63 3.14 65.23 3.12 63.82 C 32.56 51.28 62.02 38.81 91.44 26.22 C 95.88 24.11 101.90 22.12 102.26 16.30 Z" />
<path fill="#272727" d=" M 589.89 15.85 C 600.07 14.71 610.54 15.90 620.15 19.50 C 620.55 25.39 621.60 31.21 621.84 37.11 C 620.76 37.13 618.61 37.17 617.53 37.19 C 615.76 32.77 614.11 28.05 610.53 24.72 C 604.94 19.37 596.46 18.24 589.14 19.86 C 581.59 21.74 575.87 29.46 577.05 37.29 C 577.94 43.14 582.24 47.73 586.77 51.20 C 596.54 58.47 607.28 64.48 616.26 72.78 C 626.05 81.02 625.47 97.78 616.12 106.11 C 609.19 112.68 599.25 114.85 589.96 114.68 C 581.92 114.89 573.98 113.40 566.29 111.18 C 565.28 104.30 565.43 97.32 564.60 90.42 C 566.17 90.39 567.74 90.36 569.32 90.34 C 570.64 96.40 572.96 102.70 578.07 106.59 C 583.09 110.60 589.92 111.51 596.11 110.45 C 604.56 108.75 611.51 100.73 611.11 91.96 C 610.56 85.12 605.43 79.85 600.34 75.79 C 592.13 69.62 583.27 64.34 575.34 57.79 C 571.23 54.56 567.31 50.60 565.92 45.40 C 564.58 39.40 565.06 32.63 568.70 27.49 C 573.49 20.58 581.74 16.91 589.89 15.85 Z" />
<path fill="#272727" d=" M 633.96 16.60 C 659.96 18.80 686.13 18.89 712.13 16.57 C 712.64 23.84 713.58 31.07 714.34 38.32 C 712.71 38.33 711.10 38.34 709.49 38.36 C 708.39 33.43 707.40 27.22 702.20 24.96 C 695.04 22.01 687.07 23.08 679.52 22.82 C 679.32 46.58 679.51 70.34 679.43 94.10 C 679.55 98.12 679.03 102.81 681.89 106.06 C 685.00 108.20 688.99 107.93 692.59 108.39 C 692.56 109.25 692.50 110.96 692.47 111.82 C 679.53 111.84 666.59 111.82 653.65 111.83 C 653.63 110.67 653.62 109.51 653.63 108.34 C 657.13 107.93 661.08 108.24 664.12 106.13 C 666.56 103.83 666.50 100.16 666.66 97.05 C 666.69 72.33 666.68 47.60 666.66 22.88 C 660.25 22.83 653.78 22.55 647.46 23.74 C 644.92 24.42 642.19 25.32 640.56 27.52 C 638.05 30.59 637.62 34.68 636.64 38.37 C 635.10 38.36 633.57 38.34 632.05 38.33 C 632.37 31.06 633.52 23.86 633.96 16.60 Z" />
<path fill="#272727" d=" M 141.25 18.28 C 157.96 18.39 174.71 17.77 191.40 18.88 C 202.20 19.48 212.92 23.75 220.68 31.37 C 228.69 39.30 231.43 51.03 231.27 61.98 C 231.26 76.92 225.50 92.19 214.21 102.23 C 206.05 109.66 194.59 111.42 183.97 111.69 C 169.75 111.98 155.53 111.77 141.32 111.82 C 141.31 110.67 141.30 109.52 141.29 108.37 C 144.71 107.85 149.32 108.38 151.24 104.80 C 152.58 101.72 152.46 98.28 152.52 94.99 C 152.50 74.31 152.55 53.62 152.50 32.93 C 152.28 29.64 152.46 25.56 149.48 23.40 C 147.13 21.84 144.09 22.32 141.41 22.05 C 141.37 21.11 141.29 19.23 141.25 18.28 Z" />
<path fill="#272727" d=" M 240.18 18.33 C 260.88 18.17 281.58 18.23 302.28 18.30 C 302.73 24.05 303.54 29.76 303.93 35.51 C 302.44 35.53 300.95 35.54 299.47 35.56 C 298.70 32.48 298.34 29.17 296.57 26.46 C 295.26 24.65 293.02 23.94 290.91 23.60 C 281.90 22.57 272.82 22.86 263.77 22.85 C 263.72 35.45 263.79 48.05 263.73 60.66 C 270.14 60.75 276.55 60.81 282.96 60.62 C 285.80 60.45 289.12 60.35 291.20 58.12 C 292.86 55.96 292.51 53.07 292.84 50.52 C 294.37 50.50 295.91 50.49 297.45 50.48 C 297.47 58.61 297.48 66.74 297.44 74.87 C 295.89 74.83 294.35 74.80 292.80 74.76 C 292.65 71.24 292.48 65.81 287.95 65.30 C 279.97 64.00 271.81 64.82 263.76 64.61 C 263.76 75.07 263.74 85.53 263.75 95.98 C 263.62 99.43 265.15 103.16 268.46 104.61 C 273.28 106.92 278.77 106.85 283.99 107.20 C 288.34 107.16 293.32 107.85 296.98 104.95 C 300.26 102.00 300.86 97.33 301.68 93.24 C 303.26 93.25 304.84 93.26 306.43 93.29 C 305.74 100.04 305.29 106.82 304.45 113.56 C 283.13 112.44 261.78 112.06 240.45 111.93 C 240.36 110.75 240.29 109.57 240.20 108.40 C 243.18 107.92 246.65 108.21 249.09 106.13 C 251.27 103.68 251.43 100.16 251.56 97.04 C 251.60 76.69 251.55 56.35 251.58 36.01 C 251.53 32.32 251.74 28.40 250.04 25.01 C 248.10 21.65 243.69 22.34 240.43 22.05 C 240.37 21.12 240.24 19.26 240.18 18.33 Z" />
<path fill="#272727" d=" M 409.24 18.26 C 420.77 18.24 432.31 18.24 443.84 18.26 C 443.81 19.48 443.79 20.70 443.78 21.92 C 440.83 22.32 437.43 21.90 435.00 23.96 C 432.81 26.39 432.89 29.94 432.71 33.01 C 432.72 54.01 432.70 75.02 432.72 96.02 C 432.54 99.57 434.48 103.34 438.00 104.47 C 443.80 106.29 449.98 106.32 456.02 106.35 C 459.38 106.27 463.14 106.16 465.88 103.95 C 468.98 100.25 469.92 95.36 470.69 90.74 C 472.24 90.73 473.79 90.74 475.35 90.74 C 474.53 98.22 474.21 105.81 472.88 113.20 C 460.61 112.33 448.29 112.36 436.00 111.82 C 427.09 111.83 418.17 111.83 409.26 111.82 C 409.25 110.67 409.23 109.52 409.22 108.38 C 412.55 107.82 417.10 108.39 419.04 104.96 C 420.37 102.19 420.46 99.02 420.52 96.00 C 420.52 76.02 420.50 56.04 420.53 36.06 C 420.47 32.39 420.68 28.46 418.98 25.10 C 417.01 21.72 412.59 22.36 409.29 21.92 C 409.27 20.70 409.25 19.48 409.24 18.26 Z" />
<path fill="#272727" d=" M 480.60 18.27 C 492.18 18.24 503.76 18.23 515.33 18.27 C 515.30 19.53 515.27 20.80 515.25 22.06 C 512.38 22.24 509.23 21.96 506.74 23.67 C 504.19 26.01 504.35 29.80 504.19 32.99 C 504.16 54.32 504.17 75.65 504.19 96.97 C 504.35 100.15 504.18 103.86 506.54 106.34 C 509.12 108.06 512.34 107.98 515.30 108.39 C 515.30 109.52 515.30 110.67 515.31 111.81 C 503.76 111.86 492.22 111.81 480.68 111.83 C 480.65 110.98 480.60 109.27 480.57 108.41 C 483.56 107.98 486.85 108.08 489.46 106.32 C 491.68 103.80 491.59 100.16 491.74 96.99 C 491.77 75.65 491.77 54.31 491.74 32.97 C 491.58 29.79 491.69 26.10 489.22 23.71 C 486.75 21.92 483.56 22.25 480.69 22.06 C 480.66 20.79 480.62 19.53 480.60 18.27 Z" />
<path fill="#272727" d=" M 719.13 18.26 C 730.68 18.28 742.23 18.17 753.78 18.32 C 753.72 19.25 753.61 21.11 753.55 22.05 C 750.64 22.29 747.31 21.89 744.89 23.86 C 742.41 26.59 742.50 30.56 742.43 34.02 C 742.52 50.04 742.27 66.06 742.57 82.07 C 743.21 90.20 744.59 99.30 750.99 105.04 C 756.57 110.30 764.74 111.59 772.10 110.53 C 778.27 109.68 783.86 105.55 786.52 99.92 C 789.49 93.72 790.07 86.72 790.29 79.95 C 790.30 64.31 790.30 48.67 790.29 33.03 C 790.12 29.96 790.05 26.51 788.03 24.00 C 785.61 21.94 782.23 22.25 779.28 22.08 C 779.19 20.81 779.15 19.54 779.09 18.27 C 789.12 18.25 799.15 18.20 809.19 18.30 C 808.99 19.55 808.87 20.82 808.70 22.08 C 805.75 22.23 802.42 22.02 800.02 24.04 C 798.02 26.54 797.98 29.96 797.78 33.00 C 797.72 48.36 797.82 63.71 797.73 79.07 C 797.52 86.78 797.49 95.21 792.93 101.80 C 786.82 110.85 775.55 114.74 765.01 114.67 C 754.93 115.15 743.85 112.83 736.87 105.01 C 731.28 99.19 730.64 90.65 730.40 83.01 C 730.18 66.36 730.38 49.70 730.30 33.05 C 730.13 29.95 729.96 26.51 727.98 23.97 C 725.52 21.98 722.18 22.25 719.23 22.02 C 719.19 20.77 719.16 19.51 719.13 18.26 Z" />
<path fill="#272727" d=" M 816.63 18.26 C 828.74 18.26 840.85 18.21 852.96 18.28 C 861.40 18.53 869.99 18.55 878.17 20.84 C 887.10 23.87 895.90 29.04 900.77 37.39 C 906.86 47.73 907.62 60.42 905.73 72.03 C 903.77 84.00 897.76 95.54 888.33 103.29 C 880.15 109.95 869.23 111.42 859.02 111.70 C 844.89 111.97 830.76 111.76 816.63 111.83 C 816.66 110.66 816.68 109.50 816.69 108.34 C 819.65 108.02 822.93 108.12 825.51 106.37 C 827.79 103.82 827.71 100.17 827.80 96.97 C 827.81 75.98 827.80 54.98 827.81 33.99 C 827.71 30.49 827.98 26.41 825.33 23.69 C 822.82 21.92 819.61 22.23 816.71 22.06 C 816.67 20.80 816.64 19.53 816.63 18.26 Z" />
<path fill="#272727" d=" M 915.66 18.27 C 927.24 18.24 938.82 18.24 950.40 18.27 C 950.35 19.53 950.32 20.80 950.30 22.06 C 947.40 22.25 944.18 21.93 941.71 23.76 C 939.29 26.11 939.39 29.79 939.24 32.91 C 939.20 54.28 939.20 75.65 939.23 97.02 C 939.40 100.18 939.26 103.86 941.60 106.31 C 944.15 108.06 947.39 107.83 950.30 108.53 C 950.34 109.35 950.42 110.98 950.46 111.80 C 938.87 111.86 927.30 111.81 915.72 111.83 C 915.70 110.68 915.69 109.52 915.69 108.37 C 918.66 107.99 921.93 108.08 924.53 106.32 C 926.76 103.83 926.65 100.22 926.80 97.08 C 926.82 75.68 926.83 54.28 926.79 32.88 C 926.65 29.72 926.74 26.02 924.25 23.67 C 921.76 21.94 918.61 22.24 915.75 22.06 C 915.71 20.80 915.67 19.53 915.66 18.27 Z" />
<path fill="#fdfdfd" d=" M 840.19 22.14 C 850.81 22.20 862.09 21.43 871.87 26.36 C 884.42 33.05 892.03 47.00 892.80 60.98 C 893.70 73.16 891.83 86.34 884.15 96.24 C 879.00 103.15 870.58 107.44 861.96 107.58 C 856.03 107.68 849.66 107.54 844.47 104.31 C 841.67 102.58 840.04 99.34 840.20 96.07 C 840.17 71.43 840.19 46.79 840.19 22.14 Z" />
<path fill="#fdfdfd" d=" M 164.75 22.15 C 175.86 22.19 187.81 21.37 197.83 27.08 C 210.49 34.64 217.59 49.44 217.62 63.95 C 218.03 76.20 215.43 89.48 206.69 98.62 C 201.47 104.37 193.75 107.58 186.01 107.60 C 180.39 107.62 174.34 107.50 169.39 104.48 C 166.45 102.76 164.63 99.44 164.77 96.03 C 164.72 71.40 164.76 46.77 164.75 22.15 Z" />
<path fill="#fdfdfd" d=" M 22.71 69.60 C 38.26 62.94 53.83 56.30 69.47 49.83 C 69.51 62.80 69.52 75.77 69.46 88.74 C 53.93 82.25 38.14 76.33 22.71 69.60 Z" />
<path fill="#272727" d=" M 4.30 113.86 C 12.05 113.15 19.79 112.36 27.52 111.44 C 27.54 113.17 27.56 114.89 27.59 116.62 C 22.54 117.76 16.51 118.65 13.65 123.53 C 9.79 131.33 11.56 140.34 11.14 148.71 C 37.44 148.71 63.75 148.72 90.05 148.71 C 93.46 148.66 97.33 148.41 99.90 145.88 C 102.07 142.63 101.70 138.49 101.91 134.77 C 103.22 134.74 104.53 134.72 105.84 134.69 C 106.26 138.42 106.11 142.18 105.89 145.91 C 105.99 156.02 106.28 166.12 105.81 176.22 C 104.51 176.21 103.21 176.20 101.91 176.20 C 101.71 172.53 102.04 168.53 100.06 165.26 C 97.57 162.52 93.53 162.33 90.06 162.27 C 63.76 162.26 37.45 162.27 11.14 162.27 C 11.24 168.56 10.82 174.89 11.60 181.16 C 12.23 184.40 13.19 187.91 15.90 190.06 C 19.17 192.81 23.57 193.41 27.60 194.33 C 27.56 196.07 27.54 197.81 27.51 199.55 C 19.79 198.54 12.04 197.83 4.30 197.09 C 5.57 183.42 5.97 169.68 5.88 155.95 C 5.98 141.90 5.61 127.85 4.30 113.86 Z" />
<path fill="#a9a9a9" d=" M 137.26 142.43 C 367.77 142.44 598.28 142.46 828.79 142.42 C 828.91 372.99 828.77 603.56 828.86 834.13 C 685.23 834.35 541.60 834.16 397.97 834.23 C 311.05 834.18 224.14 834.31 137.22 834.16 C 137.25 603.58 137.18 373.01 137.26 142.43 Z" />
<path fill="#272727" d=" M 857.65 146.78 C 858.58 146.77 860.44 146.76 861.38 146.75 C 861.65 150.28 861.19 155.16 865.11 156.85 C 869.19 158.33 873.69 158.00 877.98 158.14 C 896.67 158.11 915.36 158.14 934.05 158.11 C 937.73 157.73 941.87 158.33 945.08 156.13 C 947.82 153.89 947.34 149.93 947.64 146.76 C 948.60 146.76 950.52 146.77 951.48 146.77 C 951.17 165.51 952.48 184.37 949.94 203.01 C 947.76 215.28 940.44 227.43 928.79 232.71 C 920.10 236.70 910.27 237.30 900.87 236.37 C 888.29 234.98 876.01 229.33 867.50 219.84 C 863.28 215.17 860.57 209.25 859.37 203.09 C 857.11 191.53 857.72 179.71 857.65 168.01 C 857.64 160.93 857.64 153.85 857.65 146.78 Z" />
<path fill="#fdfdfd" d=" M 863.27 179.07 C 864.39 174.58 868.01 170.19 872.99 170.30 C 897.84 170.20 922.70 170.24 947.56 170.28 C 947.43 181.19 948.17 192.87 942.80 202.79 C 936.83 213.19 925.81 220.23 914.09 222.24 C 903.35 224.14 891.97 223.31 881.82 219.22 C 873.42 215.74 865.99 208.96 863.34 200.07 C 861.28 193.28 861.52 185.90 863.27 179.07 Z" />
<path fill="#272727" d=" M 5.90 206.95 C 5.19 204.47 9.31 203.73 9.95 205.75 C 10.50 208.92 10.01 212.95 13.00 215.08 C 15.99 216.89 19.67 216.69 23.04 216.82 C 45.02 216.82 67.00 216.82 88.98 216.82 C 92.35 216.69 96.03 216.87 99.03 215.07 C 102.20 212.82 101.31 208.54 102.23 205.28 C 103.34 204.87 104.52 204.66 105.75 204.66 C 106.36 217.04 105.83 229.47 105.82 241.88 C 104.53 241.83 103.23 241.79 101.94 241.75 C 101.65 238.35 102.18 234.09 99.09 231.78 C 95.76 229.89 91.72 230.12 88.02 229.86 C 66.68 229.84 45.35 229.84 24.01 229.85 C 20.45 230.07 16.67 229.95 13.37 231.53 C 9.91 233.66 10.28 238.22 10.09 241.75 C 8.73 241.78 7.37 241.80 6.01 241.82 C 5.73 230.20 5.91 218.57 5.90 206.95 Z" />
<path fill="#fdfdfd" d=" M 314.81 226.67 C 374.85 226.32 434.90 226.62 494.95 226.52 C 552.64 226.52 610.32 226.52 668.01 226.52 C 672.69 226.52 677.38 226.43 682.07 226.70 C 672.17 233.76 661.56 239.76 651.38 246.40 C 614.98 269.34 578.57 292.28 542.18 315.23 C 519.86 329.14 497.80 343.47 475.34 357.14 C 422.86 314.46 370.26 271.93 317.75 229.29 C 316.75 228.43 315.77 227.56 314.81 226.67 Z" />
<path fill="#fdfdfd" d=" M 703.87 229.83 C 706.36 228.27 708.86 226.20 712.01 226.50 C 721.29 226.52 730.57 226.51 739.86 226.54 C 729.42 246.40 718.42 265.97 707.75 285.71 C 704.84 290.47 702.90 295.91 699.32 300.21 C 692.13 305.16 684.55 309.53 677.22 314.27 C 629.42 344.28 581.68 374.36 533.86 404.34 C 518.07 392.02 502.70 379.16 487.10 366.60 C 559.24 320.84 631.66 275.50 703.87 229.83 Z" />
<path fill="#272727" d=" M 857.61 244.34 C 858.85 244.28 860.10 244.23 861.37 244.18 C 861.69 247.25 861.28 250.94 863.70 253.28 C 866.33 255.31 869.89 255.24 873.06 255.34 C 894.03 255.35 915.01 255.34 935.98 255.35 C 939.17 255.27 942.69 255.27 945.38 253.26 C 947.65 250.87 947.37 247.30 947.63 244.25 C 948.90 244.24 950.18 244.23 951.48 244.23 C 951.38 255.72 951.70 267.22 951.33 278.69 C 950.09 278.76 948.86 278.81 947.64 278.85 C 947.36 275.77 947.67 272.16 945.41 269.74 C 942.73 267.76 939.24 267.66 936.05 267.56 C 915.06 267.56 894.06 267.56 873.07 267.57 C 869.88 267.70 866.34 267.71 863.70 269.75 C 861.29 272.04 861.70 275.73 861.38 278.77 C 860.13 278.77 858.89 278.77 857.67 278.78 C 857.59 267.30 857.70 255.82 857.61 244.34 Z" />
<path fill="#272727" d=" M 65.02 259.05 C 74.48 249.02 92.58 250.62 100.91 261.30 C 106.78 268.42 108.94 277.86 108.90 286.91 C 109.13 295.89 107.76 304.85 105.06 313.41 C 97.65 313.91 90.25 314.78 82.81 314.75 C 82.83 313.14 82.84 311.54 82.86 309.94 C 89.02 308.78 95.30 306.43 99.52 301.58 C 104.08 296.57 105.47 289.41 104.63 282.84 C 103.47 273.01 94.04 264.51 83.96 265.52 C 77.09 266.35 71.85 271.53 67.66 276.64 C 59.70 287.05 53.31 298.71 44.10 308.13 C 38.36 314.30 28.84 315.94 21.04 313.18 C 12.64 310.46 7.15 302.41 4.80 294.24 C 1.70 281.58 2.93 267.92 7.47 255.75 C 13.74 255.33 19.95 254.18 26.25 254.09 C 25.95 255.94 26.92 259.11 24.18 259.51 C 19.67 261.07 15.18 263.22 12.11 267.00 C 7.22 272.79 6.37 280.92 7.62 288.16 C 8.99 294.15 13.59 299.52 19.58 301.22 C 23.68 302.20 28.25 302.05 31.94 299.85 C 38.41 296.21 42.49 289.77 46.55 283.79 C 52.43 275.35 57.89 266.51 65.02 259.05 Z" />
<path fill="#fdfdfd" d=" M 221.37 259.75 C 224.52 261.85 227.42 264.28 230.33 266.70 C 244.52 278.17 258.65 289.71 272.87 301.15 C 274.70 302.63 276.41 304.27 277.94 306.07 C 312.66 348.21 347.40 390.35 382.15 432.47 C 392.24 426.55 401.88 419.89 411.98 413.98 C 426.71 425.94 441.44 437.91 456.20 449.83 C 456.59 450.53 458.89 451.70 457.42 452.34 C 439.68 463.68 421.75 474.76 403.95 486.02 C 402.47 486.61 403.72 488.01 404.64 488.35 C 436.33 508.29 467.98 528.32 499.65 548.29 C 503.86 551.05 508.33 553.45 512.27 556.62 C 494.53 567.34 476.94 578.32 459.11 588.89 C 440.56 577.10 421.87 565.53 403.27 553.82 C 390.92 546.23 378.83 538.21 366.32 530.89 C 322.37 595.43 278.61 660.11 234.75 724.72 C 231.30 729.02 225.80 730.87 221.37 733.96 C 221.27 705.63 221.38 677.30 221.31 648.97 C 221.24 647.12 221.60 645.27 222.75 643.79 C 261.83 585.86 300.60 527.71 339.74 469.82 C 300.75 422.65 261.30 375.84 222.20 328.75 C 221.05 327.43 221.42 325.56 221.29 323.96 C 221.41 302.56 221.26 281.15 221.37 259.75 Z" />
<path fill="#272727" d=" M 102.44 318.77 C 103.56 318.79 104.67 318.81 105.79 318.83 C 105.70 325.38 106.32 331.94 105.77 338.48 C 89.96 347.84 74.35 357.55 58.57 366.98 C 58.50 371.24 58.53 375.50 58.53 379.77 C 69.35 379.74 80.17 379.83 90.99 379.73 C 93.92 379.52 97.28 379.61 99.63 377.56 C 102.02 375.20 101.63 371.55 101.96 368.49 C 103.26 368.47 104.56 368.45 105.87 368.43 C 106.04 380.56 106.44 392.72 105.80 404.85 C 104.50 404.77 103.20 404.74 101.91 404.68 C 101.67 401.30 102.14 397.08 99.14 394.75 C 96.08 392.97 92.36 393.05 88.93 392.82 C 66.96 392.81 44.98 392.81 23.00 392.82 C 19.74 393.01 16.30 393.02 13.32 394.51 C 9.89 396.69 10.29 401.18 10.09 404.72 C 8.70 404.74 7.30 404.75 5.91 404.78 C 5.84 392.18 5.87 379.57 5.88 366.97 C 6.37 359.06 6.18 350.76 9.66 343.44 C 11.59 339.21 15.57 336.10 20.09 335.07 C 29.11 332.96 39.29 335.40 45.96 341.97 C 50.48 346.31 53.30 352.03 55.59 357.78 C 57.59 355.07 59.65 352.33 62.43 350.35 C 73.81 341.94 86.62 335.63 97.78 326.91 C 100.50 325.01 101.74 321.88 102.44 318.77 Z" />
<path fill="#272727" d=" M 857.64 324.49 C 858.87 324.47 860.11 324.45 861.37 324.44 C 861.59 327.24 861.52 330.23 862.90 332.79 C 865.41 335.57 869.50 335.61 872.98 335.69 C 894.33 335.68 915.69 335.70 937.04 335.67 C 940.15 335.59 943.74 335.35 946.01 332.95 C 947.53 330.39 947.43 327.31 947.65 324.45 C 948.61 324.46 950.52 324.47 951.48 324.47 C 951.49 331.72 951.48 338.97 951.49 346.21 C 929.08 357.89 906.62 369.44 884.16 381.02 C 906.56 391.74 928.99 402.38 951.45 412.96 C 951.52 420.49 951.47 428.02 951.48 435.56 C 950.52 435.56 948.60 435.57 947.65 435.58 C 947.37 432.54 947.68 428.97 945.54 426.51 C 942.92 424.31 939.24 424.36 936.01 424.27 C 915.66 424.27 895.31 424.27 874.96 424.27 C 871.34 424.34 867.53 424.31 864.21 425.92 C 861.18 428.10 861.74 432.34 861.36 435.59 C 860.43 435.58 858.58 435.56 857.65 435.55 C 857.65 424.27 857.62 413.00 857.66 401.72 C 858.58 401.72 860.42 401.70 861.34 401.70 C 861.70 404.87 861.27 408.83 864.00 411.12 C 867.23 413.19 871.29 412.75 874.96 412.88 C 897.06 412.70 919.18 413.15 941.27 412.64 C 916.47 401.32 892.10 389.04 867.33 377.65 C 868.10 376.88 868.94 376.22 869.87 375.67 C 891.63 364.38 913.50 353.30 935.16 341.82 C 914.75 341.73 894.34 341.82 873.94 341.78 C 870.71 341.90 867.26 341.87 864.35 343.44 C 861.26 345.65 861.67 349.89 861.33 353.22 C 860.42 353.18 858.58 353.11 857.66 353.08 C 857.62 343.55 857.66 334.02 857.64 324.49 Z" />
<path fill="#fdfdfd" d=" M 545.33 413.80 C 592.15 384.17 639.10 354.75 686.05 325.32 C 666.39 361.84 646.35 398.16 626.56 434.61 C 620.80 445.01 615.29 455.56 609.38 465.88 C 588.12 448.40 566.62 431.23 545.33 413.80 Z" />
<path fill="#fdfdfd" d=" M 14.86 353.90 C 19.23 348.05 27.31 347.29 34.01 348.32 C 43.26 349.26 51.76 355.92 54.32 364.95 C 54.76 369.87 54.39 374.83 54.49 379.77 C 39.72 379.77 24.94 379.77 10.17 379.77 C 10.20 371.06 9.50 361.35 14.86 353.90 Z" />
<path fill="#fdfdfd" d=" M 331.87 349.20 C 354.81 367.40 377.36 386.08 400.20 404.40 C 395.41 407.98 390.23 410.99 385.11 414.08 C 367.42 392.41 349.32 371.06 331.87 349.20 Z" />
<path fill="#fdfdfd" d=" M 221.34 349.92 C 232.87 363.03 243.77 376.69 255.05 390.01 C 277.02 416.36 299.04 442.68 320.98 469.04 C 322.31 470.09 321.67 471.65 320.82 472.77 C 291.60 516.20 262.44 559.69 233.24 603.13 C 229.27 608.82 225.77 614.84 221.40 620.24 C 221.25 530.13 221.36 440.03 221.34 349.92 Z" />
<path fill="#fdfdfd" d=" M 686.81 481.78 C 706.12 446.46 725.32 411.08 744.72 375.81 C 744.90 433.86 744.75 491.92 744.80 549.97 C 744.73 565.41 744.94 580.86 744.69 596.30 C 735.44 579.67 727.09 562.55 718.21 545.72 C 707.83 525.81 697.56 505.83 687.16 485.94 C 686.51 484.64 685.80 483.09 686.81 481.78 Z" />
<path fill="#272727" d=" M 85.72 412.39 C 93.07 412.95 100.43 413.57 107.75 414.44 C 106.60 437.16 105.86 459.91 106.13 482.66 C 104.73 482.68 103.34 482.71 101.95 482.73 C 101.68 479.33 102.09 475.12 99.04 472.81 C 96.03 471.05 92.38 470.95 88.99 470.77 C 67.99 470.76 46.98 470.79 25.98 470.76 C 21.62 470.79 17.02 470.68 12.99 472.57 C 9.79 474.80 10.33 479.28 10.10 482.70 C 8.72 482.71 7.33 482.72 5.95 482.74 C 5.78 466.50 5.92 450.27 5.87 434.03 C 5.94 428.27 5.65 422.50 6.16 416.75 C 12.33 416.38 18.42 415.23 24.60 415.03 C 24.58 416.67 24.55 418.31 24.50 419.96 C 20.60 420.61 15.97 420.98 13.34 424.37 C 11.63 427.26 11.51 430.74 11.30 434.01 C 11.02 441.92 11.17 449.85 11.14 457.77 C 24.59 457.76 38.03 457.79 51.48 457.76 C 51.34 450.22 51.79 442.65 51.14 435.13 C 50.68 432.59 50.45 429.43 47.89 428.06 C 45.62 426.91 42.96 426.97 40.49 426.64 C 40.51 425.02 40.53 423.41 40.55 421.80 C 49.19 421.80 57.83 421.80 66.47 421.80 C 66.49 423.40 66.51 425.01 66.54 426.62 C 62.98 427.09 57.80 426.90 56.47 431.10 C 54.69 439.86 55.83 448.89 55.50 457.77 C 67.02 457.73 78.54 457.85 90.05 457.72 C 93.54 457.82 96.95 455.74 98.32 452.51 C 101.00 446.39 100.74 439.55 100.84 433.02 C 100.82 429.44 101.11 425.40 98.59 422.50 C 95.54 418.95 90.57 418.21 86.21 417.42 C 86.04 415.74 85.87 414.06 85.72 412.39 Z" />
<path fill="#272727" d=" M 857.64 442.41 C 858.57 442.40 860.43 442.38 861.36 442.37 C 861.64 445.24 861.38 448.45 863.07 450.96 C 865.31 453.39 868.95 453.45 872.03 453.63 C 893.38 453.69 914.72 453.64 936.07 453.66 C 939.25 453.56 942.82 453.51 945.45 451.48 C 947.70 449.07 947.37 445.44 947.64 442.39 C 948.60 442.39 950.52 442.40 951.48 442.40 C 951.47 453.99 951.52 465.59 951.45 477.18 C 950.51 477.18 948.61 477.18 947.67 477.18 C 947.40 473.66 947.71 468.81 943.89 467.04 C 940.77 465.85 937.33 465.85 934.05 465.79 C 913.68 465.84 893.31 465.78 872.94 465.82 C 870.06 466.02 866.97 466.01 864.40 467.47 C 861.26 469.61 861.68 473.87 861.35 477.19 C 860.43 477.19 858.59 477.18 857.67 477.17 C 857.61 465.59 857.66 454.00 857.64 442.41 Z" />
<path fill="#fdfdfd" d=" M 428.86 486.97 C 442.51 478.24 456.26 469.67 470.01 461.08 C 486.96 474.76 503.86 488.51 520.78 502.23 C 532.21 511.69 544.05 520.68 555.20 530.45 C 545.88 536.02 536.70 541.84 527.35 547.36 C 525.76 548.67 524.09 547.02 522.66 546.31 C 491.45 526.43 460.04 506.88 428.86 486.97 Z" />
<path fill="#272727" d=" M 857.65 484.12 C 858.89 484.13 860.14 484.14 861.40 484.15 C 861.64 487.60 861.31 492.38 865.12 494.02 C 869.28 495.43 873.73 495.29 878.06 495.27 C 897.39 495.25 916.71 495.28 936.03 495.26 C 939.12 495.02 942.56 495.06 945.21 493.21 C 947.76 490.84 947.35 487.00 947.68 483.85 C 948.62 483.85 950.50 483.85 951.43 483.85 C 951.55 495.42 951.46 507.00 951.48 518.57 C 950.52 518.57 948.60 518.58 947.64 518.58 C 947.41 515.51 947.63 511.98 945.48 509.50 C 942.81 507.48 939.21 507.60 936.03 507.47 C 915.04 507.49 894.05 507.43 873.06 507.50 C 869.89 507.43 866.67 509.08 865.38 512.07 C 863.13 517.76 863.48 524.00 863.36 530.00 C 863.42 533.56 863.19 537.52 865.52 540.49 C 869.19 543.65 874.12 544.60 878.75 545.44 C 878.72 546.92 878.70 548.42 878.70 549.92 C 871.28 549.44 863.87 548.66 856.50 547.80 C 857.73 526.60 857.73 505.35 857.65 484.12 Z" />
<path fill="#272727" d=" M 6.08 486.97 C 5.83 485.01 8.46 486.04 9.60 485.57 C 10.24 488.00 10.31 490.86 12.31 492.69 C 15.81 496.12 20.55 497.79 24.95 499.72 C 52.49 511.03 80.05 522.32 107.57 533.67 C 109.61 534.22 109.04 536.53 109.25 538.11 C 79.80 550.77 50.24 563.19 20.79 575.86 C 16.49 578.11 10.71 580.22 9.90 585.70 C 8.57 585.73 7.23 585.73 5.90 585.77 C 5.84 575.98 5.89 566.19 5.87 556.40 C 7.27 556.38 8.67 556.38 10.06 556.38 C 10.53 558.82 9.26 563.47 12.84 563.84 C 16.45 564.08 19.76 562.30 23.01 560.98 C 45.02 551.40 67.24 542.27 89.12 532.42 C 66.89 523.37 44.65 514.35 22.42 505.31 C 19.63 504.28 16.87 502.84 13.84 502.75 C 10.57 503.79 10.43 507.71 9.96 510.51 C 8.60 510.50 7.24 510.50 5.88 510.49 C 6.02 502.65 5.58 494.79 6.08 486.97 Z" />
<path fill="#fdfdfd" d=" M 370.26 549.87 C 395.62 565.31 420.65 581.31 445.81 597.07 C 392.28 629.85 338.63 662.45 285.04 695.15 C 277.68 699.46 270.65 704.35 263.04 708.22 C 298.53 655.27 334.60 602.70 370.26 549.87 Z" />
<path fill="#272727" d=" M 857.65 550.79 C 858.55 550.78 860.36 550.77 861.26 550.76 C 861.63 553.09 861.74 555.77 863.68 557.43 C 866.58 560.11 870.36 561.55 873.93 563.10 C 900.72 574.09 927.49 585.14 954.29 596.10 C 954.25 597.39 954.23 598.69 954.22 600.00 C 928.86 610.62 903.61 621.50 878.29 632.22 C 873.47 634.34 868.45 636.14 864.04 639.07 C 862.09 640.21 861.64 642.52 861.16 644.53 C 860.28 644.53 858.52 644.51 857.64 644.50 C 857.66 635.27 857.61 626.04 857.67 616.81 C 858.58 616.80 860.42 616.79 861.33 616.79 C 861.48 619.67 861.17 623.65 864.83 624.41 C 872.53 621.97 879.91 618.63 887.30 615.39 C 887.23 601.90 887.30 588.41 887.26 574.93 C 880.17 572.16 873.32 568.61 865.96 566.65 C 862.25 566.45 861.82 571.08 861.34 573.78 C 860.41 573.77 858.57 573.74 857.64 573.73 C 857.65 566.08 857.63 558.43 857.65 550.79 Z" />
<path fill="#fdfdfd" d=" M 891.84 576.85 C 901.91 580.38 911.66 584.77 921.60 588.65 C 926.23 590.71 931.20 592.05 935.54 594.72 C 920.94 600.73 906.52 607.20 891.84 613.02 C 891.80 600.96 891.80 588.91 891.84 576.85 Z" />
<path fill="#fdfdfd" d=" M 605.80 598.42 C 617.40 591.62 628.72 584.35 640.49 577.83 C 651.13 598.84 662.35 619.56 672.75 640.69 C 658.44 632.37 644.71 623.09 630.62 614.40 C 622.38 609.02 613.79 604.16 605.80 598.42 Z" />
<path fill="#272727" d=" M 5.87 625.71 C 6.11 613.37 5.40 600.99 6.26 588.68 C 7.14 588.69 8.90 588.72 9.78 588.74 C 10.32 591.84 10.03 595.32 11.93 598.02 C 14.48 600.70 18.55 600.59 21.98 600.71 C 44.67 600.73 67.35 600.73 90.04 600.71 C 93.50 600.59 97.56 600.69 100.13 597.96 C 101.92 595.21 101.71 591.75 102.34 588.65 C 103.21 588.68 104.93 588.73 105.79 588.76 C 106.40 601.04 105.37 613.38 106.20 625.68 C 104.78 625.70 103.36 625.72 101.94 625.74 C 101.65 622.76 102.10 619.38 100.26 616.81 C 97.78 613.86 93.54 614.11 90.06 613.80 C 67.39 613.78 44.72 613.79 22.05 613.80 C 18.53 614.10 14.21 613.82 11.76 616.89 C 9.90 619.42 10.35 622.79 10.08 625.74 C 8.67 625.73 7.27 625.72 5.87 625.71 Z" />
<path fill="#fdfdfd" d=" M 589.99 607.95 C 591.49 606.64 593.24 607.23 594.70 608.27 C 623.12 626.23 651.55 644.19 680.00 662.11 C 682.49 663.81 685.69 665.00 687.06 667.91 C 701.21 695.35 715.47 722.74 729.58 750.21 C 724.75 749.69 719.45 751.28 714.94 749.16 C 669.81 720.91 624.71 692.60 579.59 664.34 C 566.09 655.69 552.25 647.56 538.96 638.60 C 555.97 628.39 572.97 618.14 589.99 607.95 Z" />
<path fill="#272727" d=" M 5.91 633.91 C 5.52 631.59 7.69 631.37 9.40 631.75 C 10.92 634.58 9.71 638.35 11.84 641.00 C 14.12 643.51 17.76 643.67 20.92 643.76 C 50.11 643.86 79.30 643.65 108.48 643.87 C 100.39 651.33 91.42 657.78 82.97 664.84 C 64.83 679.44 46.70 694.05 28.55 708.65 C 47.01 708.77 65.47 708.66 83.93 708.70 C 88.89 708.49 94.22 709.36 98.85 707.15 C 102.27 704.86 101.53 700.16 102.30 696.63 C 103.18 696.66 104.93 696.71 105.81 696.74 C 105.99 707.04 105.86 717.35 106.14 727.66 C 104.75 727.68 103.35 727.70 101.96 727.73 C 101.64 724.43 102.11 720.14 98.95 718.02 C 95.94 716.37 92.37 716.48 89.04 716.36 C 66.03 716.37 43.02 716.34 20.02 716.37 C 15.59 719.77 10.03 723.46 9.89 729.69 C 8.55 729.68 7.21 729.68 5.87 729.68 C 5.96 723.71 5.71 717.73 5.97 711.77 C 5.92 710.46 7.22 709.77 8.01 708.96 C 31.76 689.61 55.61 670.40 79.22 650.89 C 60.16 650.71 41.09 650.84 22.03 650.82 C 18.52 651.11 14.30 650.87 11.78 653.81 C 9.96 656.41 10.30 659.75 10.07 662.75 C 8.67 662.74 7.27 662.73 5.87 662.73 C 5.91 653.12 5.81 643.51 5.91 633.91 Z" />
<path fill="#fdfdfd" d=" M 523.69 647.81 C 524.99 646.59 526.46 647.60 527.72 648.32 C 576.25 678.80 624.83 709.20 673.38 739.64 C 678.67 743.09 684.24 746.13 689.30 749.93 C 669.54 750.51 649.76 750.02 629.99 750.18 C 545.33 750.18 460.66 750.18 376.00 750.18 C 368.82 750.06 361.62 750.47 354.45 749.90 C 358.55 746.69 363.19 744.33 367.59 741.59 C 419.62 710.34 471.63 679.03 523.69 647.81 Z" />
<path fill="#272727" d=" M 947.82 646.75 C 948.73 646.74 950.55 646.74 951.46 646.74 C 951.29 652.74 951.91 658.86 951.18 664.78 C 928.54 683.61 905.50 701.96 882.76 720.69 C 900.16 720.78 917.56 720.69 934.96 720.73 C 938.33 720.59 942.04 720.87 945.03 719.00 C 947.73 716.72 947.36 712.78 947.64 709.59 C 948.60 709.60 950.52 709.60 951.48 709.61 C 951.49 719.25 951.48 728.89 951.49 738.53 C 950.52 738.53 948.60 738.53 947.64 738.53 C 947.40 735.45 947.65 731.92 945.47 729.44 C 943.08 727.63 939.90 727.53 937.04 727.43 C 909.64 727.33 882.25 727.51 854.86 727.34 C 879.92 707.01 905.20 686.94 930.21 666.55 C 911.80 666.32 893.39 666.53 874.98 666.44 C 871.11 666.50 866.79 666.25 863.50 668.62 C 861.29 671.06 861.68 674.66 861.37 677.72 C 860.11 677.67 858.87 677.65 857.63 677.63 C 857.66 667.95 857.62 658.28 857.66 648.61 C 858.58 648.60 860.42 648.58 861.34 648.57 C 861.71 651.91 861.29 656.48 864.95 658.16 C 867.80 659.35 870.98 659.31 874.04 659.38 C 895.43 659.37 916.82 659.36 938.22 659.38 C 942.49 656.20 947.53 652.60 947.82 646.75 Z" />
<path fill="#272727" d=" M 5.87 736.46 C 7.27 736.44 8.67 736.43 10.07 736.44 C 10.34 739.74 9.92 743.82 12.65 746.27 C 15.39 748.07 18.84 748.30 22.03 748.38 C 37.68 748.42 53.33 748.35 68.98 748.41 C 76.08 748.53 83.37 748.52 90.16 750.86 C 99.67 754.65 106.16 763.98 107.93 773.89 C 109.24 781.47 109.30 789.36 107.80 796.92 C 105.82 806.35 99.42 815.43 89.92 818.36 C 82.47 820.33 74.68 820.41 67.01 820.41 C 51.99 820.41 36.97 820.40 21.96 820.41 C 18.52 820.49 14.60 820.60 11.95 823.09 C 10.05 825.75 10.27 829.18 10.06 832.29 C 8.75 832.31 7.44 832.34 6.14 832.38 C 5.55 820.07 6.03 807.73 5.87 795.41 C 7.27 795.38 8.67 795.37 10.06 795.37 C 10.35 798.71 9.83 802.82 12.62 805.28 C 15.56 807.49 19.51 807.24 23.00 807.40 C 39.34 807.34 55.68 807.49 72.02 807.32 C 80.68 806.92 90.13 805.80 96.98 799.95 C 104.31 793.53 106.15 782.81 104.11 773.64 C 102.46 767.07 97.28 761.69 90.96 759.40 C 82.04 756.07 72.36 756.27 62.98 756.34 C 48.96 756.37 34.93 756.28 20.91 756.38 C 17.69 756.55 13.90 756.79 11.67 759.44 C 10.05 762.10 10.26 765.32 10.07 768.31 C 8.67 768.30 7.27 768.30 5.88 768.30 C 5.87 757.68 5.88 747.07 5.87 736.46 Z" />
<path fill="#272727" d=" M 893.06 745.00 C 904.54 743.29 916.71 743.76 927.51 748.37 C 938.96 753.28 948.69 762.93 952.28 775.02 C 955.37 785.63 954.90 797.40 950.35 807.52 C 945.97 817.21 937.21 824.34 927.54 828.36 C 914.85 833.86 900.29 834.50 887.04 830.73 C 873.53 826.79 861.51 816.60 857.04 803.04 C 853.33 791.32 854.10 777.96 860.14 767.14 C 866.91 755.16 879.62 747.24 893.06 745.00 Z" />
<path fill="#fdfdfd" d=" M 899.21 758.36 C 913.03 757.56 927.83 759.50 939.23 767.94 C 945.73 772.47 950.47 779.94 950.40 788.01 C 950.77 795.46 947.12 802.70 941.47 807.43 C 931.46 815.95 917.90 819.10 905.01 818.87 C 892.42 819.19 879.22 816.48 869.08 808.66 C 862.95 804.09 858.60 796.79 858.69 789.01 C 858.37 781.54 862.04 774.28 867.72 769.55 C 876.44 762.16 887.97 758.93 899.21 758.36 Z" />
<path fill="#272727" d=" M 431.75 863.80 C 438.30 858.58 446.67 856.13 454.91 855.35 C 467.37 854.45 480.86 855.19 491.50 862.47 C 499.22 867.57 503.61 876.81 503.51 885.97 C 503.56 926.26 503.54 966.54 503.52 1006.83 C 503.58 1015.31 499.99 1023.93 493.22 1029.19 C 485.23 1035.51 474.80 1037.67 464.83 1038.00 L 458.36 1038.00 C 448.36 1037.26 437.83 1034.83 430.26 1027.85 C 424.20 1022.37 421.37 1014.08 421.43 1006.04 C 421.41 968.69 421.43 931.33 421.42 893.97 C 421.45 888.90 421.11 883.74 422.37 878.78 C 423.75 872.94 427.01 867.52 431.75 863.80 Z" />
<path fill="#272727" d=" M 585.47 861.69 C 594.83 855.91 606.24 854.57 617.03 855.03 C 627.92 855.60 639.65 858.46 647.23 866.86 C 652.25 872.25 654.40 879.75 654.35 887.01 C 654.34 898.18 654.34 909.35 654.34 920.53 C 642.72 920.55 631.11 920.54 619.50 920.54 C 619.48 911.68 619.48 902.82 619.51 893.96 C 619.46 890.39 619.42 886.54 617.49 883.41 C 616.14 881.20 613.05 880.75 610.84 881.79 C 608.83 882.80 608.03 885.09 607.63 887.15 C 606.99 891.05 607.21 895.01 607.18 898.95 C 607.20 932.64 607.18 966.32 607.18 1000.01 C 607.29 1003.31 607.24 1006.96 609.23 1009.78 C 610.97 1012.28 615.17 1012.48 617.06 1010.07 C 619.26 1007.22 619.41 1003.42 619.50 999.98 C 619.49 988.43 619.48 976.87 619.49 965.32 C 631.12 965.33 642.74 965.26 654.36 965.36 C 654.29 979.26 654.40 993.17 654.32 1007.07 C 654.25 1014.94 651.17 1022.95 645.15 1028.17 C 637.44 1035.09 626.80 1037.40 616.74 1038.00 L 608.52 1038.00 C 596.58 1037.02 583.25 1033.26 576.56 1022.46 C 571.60 1014.92 572.11 1005.60 572.22 996.99 C 572.22 962.33 572.23 927.68 572.22 893.03 C 572.24 888.00 571.91 882.87 573.34 877.99 C 575.06 871.24 579.51 865.28 585.47 861.69 Z" />
<path fill="#272727" d=" M 279.35 865.27 C 287.76 857.43 299.79 855.00 310.95 855.09 C 321.63 854.83 332.90 856.68 341.68 863.14 C 348.60 868.15 352.59 876.60 352.69 885.08 C 352.83 896.90 352.71 908.72 352.74 920.54 C 341.11 920.53 329.49 920.56 317.87 920.52 C 317.79 911.36 317.85 902.20 317.84 893.04 C 317.78 889.70 317.87 886.06 315.82 883.24 C 313.97 880.45 309.25 880.64 307.48 883.44 C 305.71 886.28 305.67 889.76 305.61 893.01 C 305.63 929.01 305.60 965.00 305.63 1001.00 C 305.76 1004.28 305.86 1008.16 308.46 1010.56 C 309.93 1012.06 312.37 1011.98 314.19 1011.25 C 317.16 1009.23 317.74 1005.34 317.81 1002.01 C 317.89 989.79 317.78 977.57 317.86 965.35 C 329.48 965.27 341.11 965.32 352.74 965.32 C 352.73 979.21 352.79 993.10 352.72 1006.99 C 352.74 1014.53 349.95 1022.18 344.46 1027.46 C 336.79 1034.75 325.96 1037.32 315.69 1038.00 L 307.41 1038.00 C 297.19 1037.18 286.30 1034.67 278.82 1027.17 C 273.13 1021.71 270.65 1013.70 270.65 1005.97 C 270.63 966.33 270.64 926.68 270.65 887.03 C 270.60 879.03 273.32 870.74 279.35 865.27 Z" />
<path fill="#272727" d=" M 729.46 867.55 C 736.01 859.77 746.29 856.38 756.11 855.38 C 768.59 854.45 782.10 855.12 792.82 862.32 C 800.34 867.26 804.78 876.02 805.06 884.95 C 805.36 896.79 805.08 908.64 805.19 920.49 C 793.55 920.60 781.92 920.51 770.28 920.54 C 770.26 911.67 770.27 902.81 770.29 893.95 C 770.20 890.42 770.10 886.66 768.34 883.51 C 766.46 880.21 760.69 880.59 759.35 884.19 C 757.41 888.84 757.81 894.00 757.77 898.93 C 757.79 932.29 757.79 965.65 757.77 999.01 C 757.90 1002.51 757.95 1006.27 759.70 1009.41 C 761.41 1012.52 766.56 1012.58 768.31 1009.48 C 770.09 1006.31 770.22 1002.54 770.29 999.00 C 770.27 987.77 770.27 976.54 770.28 965.32 C 781.92 965.36 793.56 965.20 805.20 965.41 C 805.13 978.94 805.23 992.47 805.16 1006.00 C 805.11 1013.68 802.68 1021.62 797.06 1027.09 C 789.41 1034.77 778.21 1037.32 767.74 1038.00 L 759.49 1038.00 C 748.83 1037.12 737.39 1034.30 730.00 1026.03 C 724.28 1019.86 722.67 1011.15 722.83 1003.01 C 722.87 964.66 722.82 926.30 722.86 887.95 C 722.88 880.70 724.63 873.15 729.46 867.55 Z" />
<path fill="#272727" d=" M 10.23 858.41 C 24.49 858.42 38.74 858.35 53.00 858.44 C 63.94 858.61 75.75 861.24 83.62 869.38 C 90.55 876.29 92.71 886.54 92.35 896.02 C 92.05 906.72 93.79 918.39 87.98 928.02 C 83.29 935.88 74.00 938.71 65.70 940.93 C 73.01 942.22 81.27 943.75 85.85 950.27 C 92.46 959.72 92.34 971.89 92.35 982.96 C 92.25 995.81 93.59 1009.90 86.18 1021.20 C 79.91 1030.79 67.82 1033.95 57.00 1034.38 C 41.41 1034.65 25.82 1034.43 10.23 1034.49 C 10.23 975.80 10.22 917.10 10.23 858.41 Z" />
<path fill="#272727" d=" M 164.07 858.41 C 175.64 858.40 187.20 858.40 198.77 858.41 C 198.78 917.10 198.79 975.80 198.76 1034.49 C 187.21 1034.51 175.65 1034.49 164.10 1034.50 C 163.55 1019.02 164.01 1003.51 163.86 988.02 C 163.86 955.00 163.85 921.98 163.86 888.96 C 163.98 878.77 163.59 868.58 164.07 858.41 Z" />
<path fill="#272727" d=" M 894.29 858.39 C 909.71 858.42 925.13 858.38 940.55 858.41 C 947.61 917.09 954.55 975.80 961.55 1034.49 C 949.45 1034.52 937.35 1034.47 925.26 1034.52 C 923.80 1018.55 922.47 1002.56 921.28 986.56 C 915.73 986.52 910.18 986.53 904.64 986.55 C 902.93 1002.53 900.99 1018.49 899.27 1034.47 C 888.87 1034.52 878.47 1034.51 868.08 1034.48 C 876.76 975.77 885.43 917.06 894.29 858.39 Z" />
<path fill="#fdfdfd" d=" M 460.44 881.63 C 465.86 879.46 468.89 885.88 468.62 890.33 C 468.74 927.53 468.68 964.74 468.65 1001.94 C 468.58 1005.67 467.57 1011.24 463.04 1011.72 C 458.17 1012.28 456.41 1006.48 456.48 1002.61 C 456.32 965.71 456.44 928.80 456.42 891.90 C 456.56 888.24 456.70 883.49 460.44 881.63 Z" />
<path fill="#fdfdfd" d=" M 45.23 931.61 C 45.24 915.58 45.13 899.55 45.29 883.53 C 48.65 883.66 52.67 883.09 55.26 885.77 C 57.28 888.39 57.50 891.84 57.48 895.03 C 57.47 903.71 57.49 912.39 57.47 921.07 C 57.45 924.18 57.04 927.63 54.84 930.03 C 52.10 932.13 48.44 931.43 45.23 931.61 Z" />
<path fill="#fdfdfd" d=" M 913.75 888.49 C 915.11 893.54 914.58 898.89 915.33 904.06 C 916.31 923.15 917.95 942.19 918.86 961.28 C 915.10 961.28 911.34 961.29 907.59 961.27 C 908.76 947.84 909.77 934.39 910.80 920.95 C 911.92 910.14 912.05 899.22 913.75 888.49 Z" />
<path fill="#fdfdfd" d=" M 45.22 953.42 C 48.53 953.64 52.27 952.76 55.18 954.77 C 57.26 956.51 57.48 959.45 57.48 961.99 C 57.47 974.97 57.48 987.94 57.48 1000.92 C 57.53 1003.60 57.07 1006.83 54.58 1008.38 C 51.64 1009.67 48.34 1009.19 45.22 1009.30 C 45.22 990.67 45.20 972.05 45.22 953.42 Z" />
</svg>
