<svg xmlns="http://www.w3.org/2000/svg" style="background-color: rgb(255, 255, 255);" width="774px" height="364px" xmlns:xlink="http://www.w3.org/1999/xlink" version="1.1"><defs/><g transform="translate(0.5,0.5)"><path d="M 326 -301 L 326 -321 L 449 -321 L 449 -301 Z" fill="#ffffff" stroke="#000000" stroke-miterlimit="10" transform="rotate(-90,387,64)" pointer-events="none"/><path d="M 326 -301 L 326 449 L 449 449 L 449 -301" fill="none" stroke="#000000" stroke-miterlimit="10" transform="rotate(-90,387,64)" pointer-events="none"/><g text-anchor="middle" font-size="12px" transform="rotate(-90,12,64)"><text x="12" y="68" fill="#000000" font-family="Helvetica" font-weight="bold">Admin</text></g><rect x="39" y="24" width="120" height="80" rx="12" ry="12" fill="#ffffff" stroke="#000000" pointer-events="none"/><g text-anchor="middle" font-size="12px"><text x="99" y="68" fill="#000000" font-family="Helvetica">Crea Dataset</text></g><rect x="189" y="24" width="120" height="80" rx="12" ry="12" fill="#ffffff" stroke="#000000" pointer-events="none"/><g text-anchor="middle" font-size="12px"><text x="249" y="68" fill="#000000" font-family="Helvetica">Aggiunge Dati</text></g><rect x="338" y="24" width="120" height="80" rx="12" ry="12" fill="#ffffff" stroke="#000000" pointer-events="none"/><g text-anchor="middle" font-size="12px"><text x="398" y="61" fill="#000000" font-family="Helvetica">Inserisce</text><text x="398" y="75" fill="#000000" font-family="Helvetica">Dati Addizionali</text></g><path d="M 159 64 L 181 64" fill="none" stroke="#000000" stroke-miterlimit="10" pointer-events="none"/><path d="M 188 64 L 181 68 L 181 61 Z" fill="#000000" stroke="#000000" stroke-miterlimit="10" pointer-events="none"/><path d="M 309 64 L 330 64" fill="none" stroke="#000000" stroke-miterlimit="10" pointer-events="none"/><path d="M 337 64 L 330 68 L 330 61 Z" fill="#000000" stroke="#000000" stroke-miterlimit="10" pointer-events="none"/><path d="M 292 -98 L 292 -118 L 482 -118 L 482 -98 Z" fill="#ffffff" stroke="#000000" stroke-miterlimit="10" transform="rotate(-90,387,267)" pointer-events="none"/><path d="M 292 -98 L 292 652 L 482 652 L 482 -98" fill="none" stroke="#000000" stroke-miterlimit="10" transform="rotate(-90,387,267)" pointer-events="none"/><g text-anchor="middle" font-size="12px" transform="rotate(-90,12,267)"><text x="12" y="271" fill="#000000" font-family="Helvetica" font-weight="bold">CKAN</text></g><rect x="282" y="243" width="480" height="110" fill="#ffffff" stroke="#3333ff" pointer-events="none"/><rect x="189" y="193" width="120" height="80" rx="12" ry="12" fill="#ffffff" stroke="#000000" pointer-events="none"/><g text-anchor="middle" font-size="12px"><text x="249" y="230" fill="#000000" font-family="Helvetica">Memorizzazione del</text><text x="249" y="244" fill="#000000" font-family="Helvetica">Link o del file caricato</text></g><ellipse cx="309" cy="272" rx="15" ry="15" fill="#ffffff" stroke="#000000" pointer-events="none"/><ellipse cx="309" cy="272" rx="11.818181818181818" ry="11.818181818181818" fill="#ffffff" stroke="#000000" pointer-events="none"/><path d="M 309 272 L 310 262" fill="none" stroke="#000000" stroke-miterlimit="10" pointer-events="none"/><path d="M 309 272 L 316 272" fill="none" stroke="#000000" stroke-miterlimit="10" pointer-events="none"/><path d="M 309 260 L 309 262" fill="none" stroke="#000000" stroke-miterlimit="10" pointer-events="none"/><path d="M 315 262 L 314 263" fill="none" stroke="#000000" stroke-miterlimit="10" pointer-events="none"/><path d="M 319 266 L 318 267" fill="none" stroke="#000000" stroke-miterlimit="10" pointer-events="none"/><path d="M 321 272 L 319 272" fill="none" stroke="#000000" stroke-miterlimit="10" pointer-events="none"/><path d="M 319 278 L 318 277" fill="none" stroke="#000000" stroke-miterlimit="10" pointer-events="none"/><path d="M 303 262 L 304 263" fill="none" stroke="#000000" stroke-miterlimit="10" pointer-events="none"/><path d="M 315 282 L 314 281" fill="none" stroke="#000000" stroke-miterlimit="10" pointer-events="none"/><path d="M 309 282 L 309 284" fill="none" stroke="#000000" stroke-miterlimit="10" pointer-events="none"/><path d="M 303 282 L 304 281" fill="none" stroke="#000000" stroke-miterlimit="10" pointer-events="none"/><path d="M 299 278 L 300 277" fill="none" stroke="#000000" stroke-miterlimit="10" pointer-events="none"/><path d="M 297 272 L 299 272" fill="none" stroke="#000000" stroke-miterlimit="10" pointer-events="none"/><path d="M 299 266 L 300 267" fill="none" stroke="#000000" stroke-miterlimit="10" pointer-events="none"/><rect x="351" y="260" width="120" height="80" rx="12" ry="12" fill="#ffffff" stroke="#000000" pointer-events="none"/><g text-anchor="middle" font-size="12px"><text x="411" y="297" fill="#000000" font-family="Helvetica">Ricerca di</text><text x="411" y="311" fill="#000000" font-family="Helvetica">tutti i dataset</text></g><rect x="495" y="260" width="120" height="80" rx="12" ry="12" fill="#ffffff" stroke="#000000" pointer-events="none"/><g text-anchor="middle" font-size="12px"><text x="555" y="297" fill="#000000" font-family="Helvetica">Esportazione del</text><text x="555" y="311" fill="#000000" font-family="Helvetica">file del catalogo</text></g><path d="M 321 280 L 344 295" fill="none" stroke="#000000" stroke-miterlimit="10" pointer-events="none"/><path d="M 350 299 L 342 298 L 346 293 Z" fill="#000000" stroke="#000000" stroke-miterlimit="10" pointer-events="none"/><path d="M 471 300 L 487 300" fill="none" stroke="#000000" stroke-miterlimit="10" pointer-events="none"/><path d="M 494 300 L 487 304 L 487 297 Z" fill="#000000" stroke="#000000" stroke-miterlimit="10" pointer-events="none"/><rect x="632" y="260" width="120" height="80" rx="12" ry="12" fill="#ffffff" stroke="#000000" pointer-events="none"/><g text-anchor="middle" font-size="12px"><text x="692" y="290" fill="#000000" font-family="Helvetica">Aggiornamento</text><text x="692" y="304" fill="#000000" font-family="Helvetica">del dataset</text><text x="692" y="318" fill="#000000" font-family="Helvetica">del catalogo</text></g><path d="M 615 300 L 624 300" fill="none" stroke="#000000" stroke-miterlimit="10" pointer-events="none"/><path d="M 631 300 L 624 304 L 624 297 Z" fill="#000000" stroke="#000000" stroke-miterlimit="10" pointer-events="none"/><path d="M 249 108 L 249 181" fill="none" stroke="#000000" stroke-miterlimit="10" stroke-dasharray="3 3" pointer-events="none"/><ellipse cx="249" cy="104" rx="3.5" ry="3.5" fill="transparent" stroke="#000000" pointer-events="none"/><path d="M 249 192 L 244 181 L 255 181 Z" fill="none" stroke="#000000" stroke-miterlimit="10" pointer-events="none"/><path d="M 239 142 L 259 142 L 259 156 L 239 156 Z" fill="#ffffff" stroke="#000000" stroke-miterlimit="10" pointer-events="none"/><path d="M 239 142 L 249 149 L 259 142" fill="none" stroke="#000000" stroke-miterlimit="10" pointer-events="none"/></g></svg>