<svg xmlns="http://www.w3.org/2000/svg" style="background-color: rgb(255, 255, 255);" width="774px" height="475px" xmlns:xlink="http://www.w3.org/1999/xlink" version="1.1"><defs/><g transform="translate(0.5,0.5)"><path d="M 282 -258 L 282 -278 L 432 -278 L 432 -258 Z" fill="#ffffff" stroke="#000000" stroke-miterlimit="10" transform="rotate(-90,357,77)" pointer-events="none"/><path d="M 282 -258 L 282 432 L 432 432 L 432 -258" fill="none" stroke="#000000" stroke-miterlimit="10" transform="rotate(-90,357,77)" pointer-events="none"/><g text-anchor="middle" font-size="12px" transform="rotate(-90,12,77)"><text x="12" y="81" fill="#000000" font-family="Helvetica" font-weight="bold">Admin</text></g><rect x="39" y="32" width="120" height="80" rx="12" ry="12" fill="#ffffff" stroke="#000000" pointer-events="none"/><g text-anchor="middle" font-size="12px"><text x="99" y="76" fill="#000000" font-family="Helvetica">Crea Dataset</text></g><rect x="189" y="32" width="120" height="80" rx="12" ry="12" fill="#ffffff" stroke="#000000" pointer-events="none"/><g text-anchor="middle" font-size="12px"><text x="249" y="76" fill="#000000" font-family="Helvetica">Aggiunge Dati</text></g><rect x="338" y="32" width="120" height="80" rx="12" ry="12" fill="#ffffff" stroke="#000000" pointer-events="none"/><g text-anchor="middle" font-size="12px"><text x="398" y="69" fill="#000000" font-family="Helvetica">Inserisce</text><text x="398" y="83" fill="#000000" font-family="Helvetica">Dati Addizionali</text></g><path d="M 159 72 L 181 72" fill="none" stroke="#000000" stroke-miterlimit="10" pointer-events="none"/><path d="M 188 72 L 181 76 L 181 69 Z" fill="#000000" stroke="#000000" stroke-miterlimit="10" pointer-events="none"/><path d="M 309 72 L 330 72" fill="none" stroke="#000000" stroke-miterlimit="10" pointer-events="none"/><path d="M 337 72 L 330 76 L 330 69 Z" fill="#000000" stroke="#000000" stroke-miterlimit="10" pointer-events="none"/><path d="M 267 -12 L 267 -32 L 507 -32 L 507 -12 Z" fill="#ffffff" stroke="#000000" stroke-miterlimit="10" transform="rotate(-90,387,353)" pointer-events="none"/><path d="M 267 -12 L 267 738 L 507 738 L 507 -12" fill="none" stroke="#000000" stroke-miterlimit="10" transform="rotate(-90,387,353)" pointer-events="none"/><g text-anchor="middle" font-size="12px" transform="rotate(-90,12,353)"><text x="12" y="357" fill="#000000" font-family="Helvetica" font-weight="bold">CKAN</text></g><rect x="282" y="343" width="480" height="110" fill="#ffffff" stroke="#3333ff" pointer-events="none"/><rect x="189" y="293" width="120" height="80" rx="12" ry="12" fill="#ffffff" stroke="#000000" pointer-events="none"/><g text-anchor="middle" font-size="12px"><text x="249" y="330" fill="#000000" font-family="Helvetica">Memorizzazione del</text><text x="249" y="344" fill="#000000" font-family="Helvetica">Link o del file caricato</text></g><ellipse cx="309" cy="372" rx="15" ry="15" fill="#ffffff" stroke="#000000" pointer-events="none"/><ellipse cx="309" cy="372" rx="11.818181818181818" ry="11.818181818181818" fill="#ffffff" stroke="#000000" pointer-events="none"/><path d="M 309 372 L 310 362" fill="none" stroke="#000000" stroke-miterlimit="10" pointer-events="none"/><path d="M 309 372 L 316 372" fill="none" stroke="#000000" stroke-miterlimit="10" pointer-events="none"/><path d="M 309 360 L 309 362" fill="none" stroke="#000000" stroke-miterlimit="10" pointer-events="none"/><path d="M 315 362 L 314 363" fill="none" stroke="#000000" stroke-miterlimit="10" pointer-events="none"/><path d="M 319 366 L 318 367" fill="none" stroke="#000000" stroke-miterlimit="10" pointer-events="none"/><path d="M 321 372 L 319 372" fill="none" stroke="#000000" stroke-miterlimit="10" pointer-events="none"/><path d="M 319 378 L 318 377" fill="none" stroke="#000000" stroke-miterlimit="10" pointer-events="none"/><path d="M 303 362 L 304 363" fill="none" stroke="#000000" stroke-miterlimit="10" pointer-events="none"/><path d="M 315 382 L 314 381" fill="none" stroke="#000000" stroke-miterlimit="10" pointer-events="none"/><path d="M 309 382 L 309 384" fill="none" stroke="#000000" stroke-miterlimit="10" pointer-events="none"/><path d="M 303 382 L 304 381" fill="none" stroke="#000000" stroke-miterlimit="10" pointer-events="none"/><path d="M 299 378 L 300 377" fill="none" stroke="#000000" stroke-miterlimit="10" pointer-events="none"/><path d="M 297 372 L 299 372" fill="none" stroke="#000000" stroke-miterlimit="10" pointer-events="none"/><path d="M 299 366 L 300 367" fill="none" stroke="#000000" stroke-miterlimit="10" pointer-events="none"/><rect x="351" y="360" width="120" height="80" rx="12" ry="12" fill="#ffffff" stroke="#000000" pointer-events="none"/><g text-anchor="middle" font-size="12px"><text x="411" y="397" fill="#000000" font-family="Helvetica">Ricerca di</text><text x="411" y="411" fill="#000000" font-family="Helvetica">tutti i dataset</text></g><rect x="495" y="360" width="120" height="80" rx="12" ry="12" fill="#ffffff" stroke="#000000" pointer-events="none"/><g text-anchor="middle" font-size="12px"><text x="555" y="397" fill="#000000" font-family="Helvetica">Esportazione del</text><text x="555" y="411" fill="#000000" font-family="Helvetica">file del catalogo</text></g><path d="M 321 380 L 344 395" fill="none" stroke="#000000" stroke-miterlimit="10" pointer-events="none"/><path d="M 350 399 L 342 398 L 346 393 Z" fill="#000000" stroke="#000000" stroke-miterlimit="10" pointer-events="none"/><path d="M 471 400 L 487 400" fill="none" stroke="#000000" stroke-miterlimit="10" pointer-events="none"/><path d="M 494 400 L 487 404 L 487 397 Z" fill="#000000" stroke="#000000" stroke-miterlimit="10" pointer-events="none"/><rect x="632" y="360" width="120" height="80" rx="12" ry="12" fill="#ffffff" stroke="#000000" pointer-events="none"/><g text-anchor="middle" font-size="12px"><text x="692" y="390" fill="#000000" font-family="Helvetica">Aggiornamento</text><text x="692" y="404" fill="#000000" font-family="Helvetica">del dataset</text><text x="692" y="418" fill="#000000" font-family="Helvetica">del catalogo</text></g><path d="M 615 400 L 624 400" fill="none" stroke="#000000" stroke-miterlimit="10" pointer-events="none"/><path d="M 631 400 L 624 404 L 624 397 Z" fill="#000000" stroke="#000000" stroke-miterlimit="10" pointer-events="none"/><path d="M 249 116 L 249 281" fill="none" stroke="#000000" stroke-miterlimit="10" stroke-dasharray="3 3" pointer-events="none"/><ellipse cx="249" cy="112" rx="3.5" ry="3.5" fill="transparent" stroke="#000000" pointer-events="none"/><path d="M 249 292 L 244 281 L 255 281 Z" fill="none" stroke="#000000" stroke-miterlimit="10" pointer-events="none"/><path d="M 239 196 L 259 196 L 259 210 L 239 210 Z" fill="#ffffff" stroke="#000000" stroke-miterlimit="10" pointer-events="none"/><path d="M 239 196 L 249 203 L 259 196" fill="none" stroke="#000000" stroke-miterlimit="10" pointer-events="none"/></g></svg>